<?xml version="1.0" standalone="no"?>
<!DOCTYPE svg PUBLIC "-//W3C//DTD SVG 20010904//EN"
 "http://www.w3.org/TR/2001/REC-SVG-20010904/DTD/svg10.dtd">
<svg version="1.0" xmlns="http://www.w3.org/2000/svg"
 width="700.000000pt" height="700.000000pt" viewBox="0 0 700.000000 700.000000"
 preserveAspectRatio="xMidYMid meet">
<metadata>
Created by potrace 1.14, written by Peter Selinger 2001-2017
</metadata>
<g transform="translate(0.000000,700.000000) scale(0.100000,-0.100000)"
fill="#000000" stroke="none">
<path d="M5818 6644 c-2 -1 -50 -5 -108 -9 -58 -3 -123 -8 -145 -11 -22 -2
-67 -6 -100 -9 -56 -5 -117 -10 -225 -20 -25 -2 -79 -6 -120 -10 -41 -3 -89
-8 -105 -10 -17 -2 -66 -6 -110 -9 -44 -4 -100 -8 -125 -11 -25 -2 -76 -7
-115 -10 -269 -22 -297 -25 -306 -31 -5 -3 -9 1 -9 8 0 8 -3 9 -8 3 -4 -5 -29
-12 -57 -13 -90 -6 -112 -9 -123 -16 -6 -3 -13 -2 -17 4 -4 6 -11 7 -17 4 -6
-4 -29 -8 -52 -10 -95 -7 -171 -16 -178 -20 -5 -3 -8 1 -8 8 0 8 -3 9 -8 3 -4
-5 -18 -11 -32 -12 -75 -5 -182 -14 -230 -19 -124 -11 -143 -14 -147 -18 -3
-3 -16 -1 -29 4 -13 5 -25 6 -28 2 -3 -5 -22 -9 -43 -10 -107 -7 -135 -10
-140 -15 -3 -3 -16 -2 -30 4 -13 5 -22 5 -19 1 3 -5 -14 -9 -37 -10 -56 -3
-141 -12 -146 -17 -2 -3 -12 0 -22 5 -10 6 -20 6 -23 2 -5 -8 -54 -14 -148
-16 -32 0 -58 -4 -58 -7 0 -4 -12 -7 -27 -6 -29 0 -161 -10 -223 -17 -19 -2
-75 -7 -125 -11 -49 -4 -101 -9 -115 -10 -14 -2 -44 -4 -68 -4 -32 -1 -41 -4
-36 -13 6 -10 4 -10 -7 -2 -8 5 -23 9 -34 8 -11 -1 -54 -6 -95 -9 -41 -4 -86
-9 -100 -10 -14 -2 -49 -3 -78 -4 -29 -1 -51 -4 -49 -8 3 -5 -20 -7 -51 -6
-31 0 -61 -1 -65 -4 -5 -3 -57 -7 -115 -10 -59 -2 -109 -8 -112 -11 -3 -4 -52
-8 -110 -10 -66 -2 -107 -8 -112 -15 -6 -9 -8 -9 -8 1 0 7 -3 11 -8 9 -4 -3
-45 -8 -92 -12 -47 -4 -88 -9 -93 -12 -4 -2 -7 2 -7 9 0 9 -3 10 -8 2 -4 -6
-50 -15 -102 -19 -52 -4 -104 -9 -115 -12 -11 -2 -42 -4 -70 -5 -27 0 -53 -6
-57 -12 -6 -8 -8 -8 -8 0 0 7 -10 9 -25 6 -14 -2 -23 -7 -21 -11 5 -8 18 -154
20 -223 0 -27 3 -48 6 -48 3 0 5 -24 6 -53 1 -47 12 -195 19 -257 2 -14 6 -68
10 -120 4 -52 11 -103 16 -112 7 -12 6 -18 -1 -18 -6 0 -9 -3 -7 -7 6 -11 18
-133 32 -318 2 -22 4 -40 5 -40 3 0 18 -168 26 -290 2 -33 6 -78 8 -100 5 -42
17 -176 21 -235 2 -19 4 -35 4 -35 1 0 4 -31 6 -70 3 -38 7 -92 10 -120 9 -86
18 -199 18 -232 0 -18 3 -33 6 -33 3 0 7 -24 7 -53 3 -112 4 -118 17 -111 9 6
9 5 0 -7 -7 -9 -10 -26 -8 -40 3 -13 8 -62 11 -109 3 -47 10 -90 16 -97 6 -7
5 -14 -2 -18 -6 -3 -8 -10 -6 -13 4 -7 14 -98 21 -202 2 -25 6 -74 10 -110 3
-36 8 -90 10 -120 3 -30 7 -82 10 -115 4 -33 8 -84 11 -112 2 -29 6 -79 9
-110 3 -32 6 -79 7 -105 1 -27 5 -48 8 -48 3 0 4 -17 4 -37 -1 -21 3 -43 8
-50 5 -6 5 -14 0 -17 -5 -3 -6 -25 -2 -50 3 -24 5 -51 4 -60 -1 -9 1 -16 4
-16 4 0 7 -24 8 -53 1 -48 7 -123 20 -267 3 -30 7 -82 9 -115 2 -33 4 -60 5
-60 3 0 7 -43 14 -130 3 -44 8 -114 12 -155 4 -41 7 -90 8 -107 0 -18 3 -33 6
-33 3 0 5 -24 6 -53 1 -28 5 -90 9 -137 4 -47 9 -101 11 -120 1 -19 3 -35 4
-35 1 0 3 -25 5 -55 3 -48 8 -113 20 -250 2 -19 4 -37 5 -40 1 -3 2 -9 1 -14
-3 -16 32 -116 40 -116 5 0 9 -6 9 -14 0 -24 101 -105 154 -123 53 -17 164
-24 173 -10 3 4 11 3 18 -3 9 -7 15 -7 19 -1 4 5 15 8 26 6 11 -2 20 2 20 8 0
7 4 6 10 -3 6 -9 13 -11 18 -5 4 6 27 11 52 12 25 1 59 3 77 5 17 2 29 0 26
-5 -3 -5 4 -4 16 2 12 7 26 9 31 6 6 -3 10 0 10 7 1 8 5 7 14 -5 10 -13 15
-14 18 -6 3 8 27 14 64 15 32 1 59 3 59 4 0 1 25 3 56 5 31 1 60 4 65 6 5 3
24 5 42 4 17 -1 32 3 32 8 0 5 6 4 14 -2 8 -7 17 -8 20 -3 6 10 42 9 52 -1 4
-4 12 -2 19 3 6 5 40 12 76 15 172 14 216 17 239 18 14 0 28 5 32 11 5 7 8 6
8 -3 0 -11 3 -11 17 0 14 12 16 12 8 0 -6 -10 -4 -12 6 -5 8 4 27 9 44 10 112
6 132 9 144 18 11 8 13 8 7 -2 -4 -6 -3 -12 3 -12 5 0 12 4 15 8 6 11 67 9 85
-2 10 -7 12 -6 6 4 -6 10 -4 12 8 7 10 -3 17 -3 17 1 0 4 23 7 50 6 28 0 50 4
50 9 0 5 6 4 13 -2 8 -6 16 -8 19 -6 12 12 48 13 48 2 0 -8 3 -7 9 2 5 8 18
12 30 8 12 -3 21 -2 21 2 0 10 31 7 49 -4 9 -5 12 -4 7 3 -4 7 3 10 21 8 16
-1 36 2 47 7 14 7 17 6 10 -5 -6 -10 -5 -11 7 -1 8 7 26 9 39 6 17 -5 21 -3
15 6 -6 10 -3 11 14 2 11 -7 21 -8 21 -3 0 4 16 7 35 7 20 -1 38 2 41 7 3 5
11 5 17 1 17 -10 37 -13 37 -4 0 4 19 8 43 9 23 0 67 3 97 6 32 3 60 0 68 -6
9 -8 11 -7 7 4 -6 16 20 18 44 3 9 -5 12 -4 8 2 -4 6 11 11 36 12 62 4 112 8
112 11 0 1 10 3 22 4 14 2 20 -2 16 -8 -5 -7 -2 -7 8 0 8 6 39 12 69 14 101 4
126 7 138 14 7 4 12 2 12 -4 0 -7 6 -8 19 0 11 5 33 8 50 6 17 -2 31 0 31 3 0
4 27 7 61 6 33 0 62 2 64 6 2 3 22 5 44 4 23 -1 41 4 41 9 0 6 5 4 10 -4 5 -8
10 -10 10 -5 0 6 24 10 53 9 28 0 58 4 65 9 8 6 12 5 12 -4 0 -9 3 -10 8 -4 4
6 18 11 32 10 14 0 37 3 52 7 15 3 30 2 34 -3 3 -6 11 -6 17 -1 14 10 27 10
44 -1 8 -5 11 -3 8 5 -4 9 2 14 15 14 14 0 19 -5 15 -15 -5 -11 -3 -12 10 -1
22 19 99 25 90 8 -3 -7 1 -4 10 7 14 17 17 18 25 5 7 -10 10 -11 10 -2 0 6 7
12 15 12 8 0 15 -6 15 -12 0 -9 3 -8 10 2 5 8 12 11 16 8 4 -4 15 -3 25 3 13
7 26 6 40 -2 15 -8 19 -8 15 0 -5 7 7 11 36 12 24 1 60 2 81 4 20 2 37 -1 37
-7 0 -5 7 -2 16 6 18 19 38 21 28 3 -6 -9 -5 -9 7 0 8 6 29 10 47 9 18 -1 36
2 39 7 3 5 9 3 14 -4 6 -10 9 -11 9 -2 0 8 9 11 23 9 12 -2 34 0 49 5 18 5 29
3 32 -4 3 -9 7 -8 14 1 12 17 22 17 33 0 5 -8 9 -9 9 -2 0 16 46 23 61 10 9
-8 10 -7 4 3 -6 11 -4 13 8 8 10 -4 28 -2 41 3 17 6 26 5 30 -3 5 -9 7 -9 12
1 5 10 9 10 22 0 13 -11 14 -11 8 0 -7 12 -4 12 14 2 17 -9 21 -9 15 0 -5 8 1
11 21 9 16 -2 34 -1 39 2 9 5 18 5 43 0 4 -1 0 -6 -8 -12 -13 -9 -13 -10 0 -6
8 2 14 10 12 16 -1 7 10 10 33 8 19 -2 32 -1 30 3 -2 4 10 8 28 9 55 4 57 4
57 14 0 5 6 5 13 -1 10 -8 20 -4 41 18 15 17 34 30 42 30 8 0 13 6 11 12 -1 7
4 12 12 10 8 -2 11 3 8 13 -4 8 -2 15 2 15 16 0 53 70 47 86 -3 8 -2 12 4 9 6
-4 10 5 10 20 0 14 4 24 8 21 12 -7 9 68 -3 77 -6 4 -4 11 5 17 8 5 10 10 5
10 -6 0 -10 15 -10 33 0 17 -4 38 -9 45 -5 7 -4 12 3 12 7 0 8 8 1 26 -13 33
-13 37 3 28 9 -5 9 -4 0 6 -6 7 -9 19 -6 26 3 8 0 14 -6 14 -9 0 -9 5 -1 20 6
11 7 20 1 20 -5 0 -9 10 -9 23 2 68 -6 146 -13 141 -5 -3 -6 2 -3 10 3 9 11
13 18 9 6 -3 3 3 -7 14 -14 16 -15 22 -5 26 10 4 10 6 -1 6 -11 1 -11 4 0 18
10 11 10 14 2 9 -10 -5 -13 6 -14 46 -2 95 -4 113 -14 120 -6 5 -5 8 2 8 9 0
10 7 4 22 -5 13 -9 26 -10 31 0 4 -1 8 -2 10 0 1 -1 17 -2 35 -1 22 3 32 13
33 10 0 11 2 2 6 -7 2 -17 14 -24 26 -10 21 -10 21 7 7 17 -14 18 -14 6 7 -6
13 -10 23 -7 23 3 0 1 14 -4 30 -6 21 -5 28 2 24 7 -5 8 -2 2 7 -16 26 -22
128 -9 149 5 9 4 11 -3 6 -8 -5 -12 1 -12 16 1 40 -9 128 -15 138 -3 6 -1 10
5 10 6 0 8 5 4 12 -12 19 -12 48 0 48 6 0 5 4 -2 9 -9 5 -16 36 -19 87 -8 141
-9 153 -16 160 -3 4 -2 15 4 25 7 14 6 19 -3 19 -9 0 -9 3 0 12 9 9 8 16 -4
29 -9 10 -11 20 -6 23 6 3 7 20 2 40 -4 19 -6 49 -5 65 1 17 0 31 -4 31 -3 0
-6 17 -7 38 -2 70 -14 203 -19 212 -3 4 1 11 7 13 10 4 9 6 -1 6 -11 1 -11 4
0 18 12 14 12 16 0 9 -11 -7 -13 -1 -9 28 2 20 2 36 -2 36 -3 0 -5 15 -4 32 1
18 -4 36 -10 40 -7 5 -7 8 -1 8 12 0 13 46 2 57 -12 11 -8 25 6 17 10 -6 10
-4 0 7 -7 7 -13 35 -13 62 0 36 -3 46 -12 41 -10 -6 -10 -4 -2 7 5 8 9 23 8
34 -1 11 -5 52 -9 90 -3 39 -8 76 -11 83 -2 7 1 10 7 6 6 -3 4 5 -6 19 -10 17
-13 27 -6 32 7 4 8 13 2 23 -4 9 -8 47 -7 84 0 38 -2 68 -6 68 -4 0 -6 18 -4
40 2 24 -1 40 -8 40 -6 0 -4 5 4 10 8 5 11 10 5 10 -5 0 -11 16 -12 35 -1 20
2 33 7 30 5 -3 12 0 16 7 4 7 4 10 -1 6 -12 -11 -47 11 -38 25 12 18 10 107
-2 107 -5 0 -3 5 5 10 11 7 11 10 2 10 -10 0 -10 5 -1 21 8 15 8 19 0 15 -7
-5 -11 10 -12 46 -1 29 -2 68 -3 86 0 17 -3 32 -6 32 -3 0 -5 17 -6 38 0 20
-4 69 -7 107 -3 39 -9 102 -12 140 -3 39 -7 85 -10 102 -5 26 -3 32 9 27 7 -3
17 -1 20 4 3 5 -2 9 -12 8 -9 0 -16 5 -14 12 1 6 -2 12 -6 12 -4 0 -7 17 -7
38 1 20 -1 51 -5 67 -4 21 -1 34 9 43 9 7 11 11 4 10 -6 -2 -11 1 -11 6 0 5
-6 13 -14 17 -7 5 -8 9 -3 9 6 0 10 16 10 35 0 19 -3 35 -7 35 -4 0 -6 12 -4
28 1 15 0 36 -4 47 -5 13 -1 24 9 33 12 9 12 12 2 10 -11 -2 -15 12 -16 58 -1
33 -5 66 -9 72 -4 7 -2 12 5 12 8 0 8 4 1 13 -13 16 -20 97 -9 97 5 0 4 7 -3
15 -7 8 -10 15 -6 15 3 0 1 11 -4 24 -5 15 -5 27 3 35 7 7 7 11 1 11 -6 0 -10
10 -9 23 1 12 -2 32 -6 44 -5 12 -4 25 1 28 5 3 5 18 1 33 -5 15 -7 35 -5 45
1 9 -1 17 -4 17 -6 0 -10 56 -13 188 -1 17 -6 32 -11 32 -6 0 -5 6 2 15 6 8 8
20 4 26 -4 7 -9 32 -11 56 -2 24 -5 63 -6 88 -2 25 -7 48 -10 51 -3 3 -2 17 4
31 6 15 5 22 -1 18 -5 -3 -10 12 -10 37 -1 72 -3 83 -14 90 -8 5 -7 8 1 8 7 0
10 7 6 16 -3 9 -7 30 -7 48 -1 26 -5 31 -29 32 -14 1 -28 0 -29 -2z m382
-5828 c0 -3 -4 -8 -10 -11 -5 -3 -10 -1 -10 4 0 6 5 11 10 11 6 0 10 -2 10 -4z"/>
<path d="M6356 5198 c3 -5 10 -6 15 -3 13 9 11 12 -6 12 -8 0 -12 -4 -9 -9z"/>
<path d="M6190 4879 c0 -5 5 -7 10 -4 6 3 10 8 10 11 0 2 -4 4 -10 4 -5 0 -10
-5 -10 -11z"/>
<path d="M6073 4785 c0 -8 4 -12 9 -9 5 3 6 10 3 15 -9 13 -12 11 -12 -6z"/>
<path d="M6430 3999 c0 -5 5 -7 10 -4 6 3 10 8 10 11 0 2 -4 4 -10 4 -5 0 -10
-5 -10 -11z"/>
<path d="M6316 3087 c3 -10 9 -15 12 -12 3 3 0 11 -7 18 -10 9 -11 8 -5 -6z"/>
<path d="M6319 2873 c-13 -16 -12 -17 4 -4 16 13 21 21 13 21 -2 0 -10 -8 -17
-17z"/>
<path d="M6255 2491 c-3 -5 -2 -12 3 -15 5 -3 9 1 9 9 0 17 -3 19 -12 6z"/>
<path d="M6396 2073 c-6 -14 -5 -15 5 -6 7 7 10 15 7 18 -3 3 -9 -2 -12 -12z"/>
<path d="M6470 2080 c0 -5 5 -10 11 -10 5 0 7 5 4 10 -3 6 -8 10 -11 10 -2 0
-4 -4 -4 -10z"/>
<path d="M6556 1187 c3 -10 9 -15 12 -12 3 3 0 11 -7 18 -10 9 -11 8 -5 -6z"/>
<path d="M5393 675 c0 -8 4 -12 9 -9 5 3 6 10 3 15 -9 13 -12 11 -12 -6z"/>
<path d="M5789 603 c-13 -16 -12 -17 4 -4 9 7 17 15 17 17 0 8 -8 3 -21 -13z"/>
<path d="M6229 603 c-13 -16 -12 -17 4 -4 9 7 17 15 17 17 0 8 -8 3 -21 -13z"/>
<path d="M4546 602 c-3 -5 1 -9 9 -9 8 0 12 4 9 9 -3 4 -7 8 -9 8 -2 0 -6 -4
-9 -8z"/>
<path d="M3753 525 c0 -8 4 -12 9 -9 5 3 6 10 3 15 -9 13 -12 11 -12 -6z"/>
<path d="M3455 520 c3 -5 8 -10 11 -10 2 0 4 5 4 10 0 6 -5 10 -11 10 -5 0 -7
-4 -4 -10z"/>
<path d="M4513 485 c0 -8 4 -12 9 -9 5 3 6 10 3 15 -9 13 -12 11 -12 -6z"/>
<path d="M3640 440 c-9 -6 -10 -10 -3 -10 6 0 15 5 18 10 8 12 4 12 -15 0z"/>
<path d="M4375 441 c-3 -5 -2 -12 3 -15 5 -3 9 1 9 9 0 17 -3 19 -12 6z"/>
<path d="M3395 369 c-4 -6 -5 -12 -2 -15 2 -3 7 2 10 11 7 17 1 20 -8 4z"/>
<path d="M1820 366 c0 -2 8 -10 18 -17 15 -13 16 -12 3 4 -13 16 -21 21 -21
13z"/>
<path d="M1830 286 c0 -2 7 -7 16 -10 8 -3 12 -2 9 4 -6 10 -25 14 -25 6z"/>
<path d="M2750 159 c0 -5 5 -7 10 -4 6 3 10 8 10 11 0 2 -4 4 -10 4 -5 0 -10
-5 -10 -11z"/>
<path d="M2390 120 c0 -5 5 -10 11 -10 5 0 7 5 4 10 -3 6 -8 10 -11 10 -2 0
-4 -4 -4 -10z"/>
</g>
</svg>
